<?xml version="1.0" encoding="utf-8"?>
<svg viewBox="2.844 142.781 500 155.277" xmlns="http://www.w3.org/2000/svg">
  <ellipse transform="matrix(0.999998, 0, 0, 1, -65.784904, -30.405518)" cx="150.437" cy="255.93" rx="3.948" ry="3.948" style="fill: rgb(216, 216, 216);"/>
  <ellipse transform="matrix(0.999998, 0, 0, 1, -84.244369, -21.152237)" cx="150.437" cy="255.93" rx="3.948" ry="3.948" style="fill: rgb(216, 216, 216);"/>
  <ellipse cx="193.872" cy="171" rx="3.948" ry="3.948" style="fill: rgb(216, 216, 216);"/>
  <ellipse cx="259.153" cy="167.358" rx="3.948" ry="3.948" style="fill: rgb(216, 216, 216);"/>
  <ellipse cx="339.435" cy="177.987" rx="3.948" ry="3.948" style="fill: rgb(216, 216, 216);"/>
  <ellipse transform="matrix(0.999998, 0, 0, 1, -50.660262, -46.250076)" cx="150.437" cy="255.93" rx="3.948" ry="3.948" style="fill: rgb(216, 216, 216);"/>
  <ellipse transform="matrix(0.999996, 0, 0, 1, -28.153204, -63.354996)" cx="150.437" cy="255.93" rx="3.948" ry="3.948" style="fill: rgb(216, 216, 216);"/>
  <ellipse style="fill: rgb(216, 216, 216);" cx="153.972" cy="183.392" rx="3.948" ry="3.948"/>
  <ellipse cx="153.972" cy="183.392" rx="3.948" ry="3.948" style="fill: rgb(216, 216, 216);"/>
  <ellipse cx="173.346" cy="202.329" rx="3.948" ry="3.948" style="fill: rgb(216, 216, 216);"/>
  <ellipse cx="224.841" cy="167.759" rx="3.948" ry="3.948" style="fill: rgb(216, 216, 216);"/>
  <ellipse cx="224.841" cy="167.759" rx="3.948" ry="3.948" style="fill: rgb(216, 216, 216);"/>
  <ellipse cx="288.682" cy="197.247" rx="3.948" ry="3.948" style="fill: rgb(216, 216, 216);"/>
  <ellipse cx="288.682" cy="197.247" rx="3.948" ry="3.948" style="fill: rgb(216, 216, 216);"/>
  <ellipse cx="317.649" cy="194.192" rx="3.948" ry="3.948" style="fill: rgb(216, 216, 216);"/>
  <ellipse cx="363.742" cy="198.873" rx="3.948" ry="3.948" style="fill: rgb(216, 216, 216);"/>
  <ellipse cx="363.742" cy="198.873" rx="3.948" ry="3.948" style="fill: rgb(216, 216, 216);"/>
  <ellipse transform="matrix(0.999998, 0, 0, 1, -132.402139, -14.214157)" cx="150.437" cy="255.93" rx="3.948" ry="3.948" style="fill: rgb(216, 216, 216);"/>
  <ellipse transform="matrix(0.999998, 0, 0, 1, -109.54729, -18.703506)" cx="150.437" cy="255.93" rx="3.948" ry="3.948" style="fill: rgb(216, 216, 216);"/>
  <ellipse transform="matrix(0.9999979138374329, 0, 0, 1, -109.54728698730469, -18.703506469726562)" cx="150.437" cy="255.93" rx="3.948" ry="3.948" style="fill: rgb(216, 216, 216);"/>
  <path d="M 11.636 241.983 C 34.783 241.983 59.123 234.86 80.609 227.698 C 85.255 226.15 91.938 228.613 95.301 225.25 C 95.588 224.963 97.342 224.953 97.342 224.433" style="stroke: rgb(0, 0, 0); fill: none;"/>
  <path d="M 11.228 237.901 C 11.228 237.901 19.214 236.794 19.799 236.677 C 28.859 234.865 39.465 233.115 48.367 230.147 C 56.134 227.558 64.425 226.317 72.447 224.025 C 80.184 221.815 87.442 217.841 94.893 215.047 C 112.113 208.589 127.089 196.56 143.868 190.967 C 149.361 189.136 156.638 185.063 161.825 181.172 C 162.327 180.796 167.947 177.091 167.947 177.091" style="stroke: rgb(0, 0, 0); fill: none;"/>
  <path d="M 10.82 246.064" style="stroke: rgb(0, 0, 0); fill: none;"/>
  <path d="M 7.555 240.35 C 7.555 240.35 12.457 240.35 12.861 240.35 C 18.846 240.35 24.832 240.35 30.818 240.35 C 39.239 240.35 49.803 236.979 56.938 233.412 C 59.574 232.094 63.101 232.718 65.917 231.78 C 72.44 229.605 77.727 228.731 83.874 225.658 C 98.737 218.227 112.016 205.669 126.727 198.314 C 135.098 194.128 145.327 192.074 153.255 188.11 C 159.472 185.002 166.138 182.281 170.804 179.948 C 172.965 178.867 176.947 175.051 178.966 175.051 C 185.708 175.051 196.196 171.945 202.229 168.929 C 203.867 168.11 208.724 169.781 209.984 168.521 C 210.726 167.779 216.646 165.664 218.554 165.664 C 219.141 165.664 221.497 165.986 221.819 165.664 C 223.188 164.295 226.844 165.396 228.757 164.439 C 235.417 161.109 243.831 163.632 251.204 161.174 C 258.061 158.889 274.983 158.779 281.405 161.991 C 285.809 164.193 296.184 161.991 301.403 161.991 C 305.812 161.991 315.866 163.802 318.136 166.072 C 321.156 169.092 329.447 167.588 332.42 170.561 C 334.132 172.273 337.603 172.54 340.175 173.826 C 347.795 177.636 356.724 179.417 364.254 184.437 C 370.764 188.777 379.355 188.826 379.355 196.273" style="stroke: rgb(0, 0, 0); fill: none;"/>
  <path d="M 102.648 129.749 L 102.648 129.749" style="stroke: rgb(0, 0, 0); fill: rgb(216, 216, 216);"/>
</svg>